# xmcd CD database file
#
# Track frame offsets:
#	225
#	12691
#	27321
#	40544
#	55153
#	65637
#	76180
#	87587
#	102122
#	118430
#	130060
#	144316
#	159802
#	174298
#	188148
#	199556
#	213225
#	226469
#
# Disc length: 3193 seconds
#
# Revision: 2
# Processed by: cddbd v1.4PL0 Copyright (c) Steve Scherf et al.
# Submitted via: CDex 1.40Beta9
#
DISCID=ed0c7612
DTITLE=Bing Crosby  - Swinging on a star CD2
DYEAR=1900
DGENRE=
TTITLE0=The Girl's Friend
TTITLE1=Helpless
TTITLE2=Who Gave You Roses?
TTITLE3=A Quiet Girl
TTITLE4=Row,Row,Row
TTITLE5=A Couple Of Song And Dance Men
TTITLE6=Swinging On A Star
TTITLE7=Pennies From Heaven
TTITLE8=Zing A Little Zong
TTITLE9=You Are My Sunshine
TTITLE10=Moonlight Bay
TTITLE11=In The Cool, Cool, Cool Of The Evening
TTITLE12=Where The Blues Of The Night Meets The Gold Of The Day
TTITLE13=Anything You Can Do
TTITLE14=The Road To Bali (Bing Crosby with Bob Hope)
TTITLE15=The Spaniard That Blighted My Life (Bing Crosby with Al Jolson)
TTITLE16=Life Is So Peculiar (Bing Crosby with The Andrew Sisters)
TTITLE17=The Moon Came Up With A Great Idea (Bing Crosby with Peggy Lee)
EXTD=
EXTT0=
EXTT1=
EXTT2=
EXTT3=
EXTT4=
EXTT5=
EXTT6=
EXTT7=
EXTT8=
EXTT9=
EXTT10=
EXTT11=
EXTT12=
EXTT13=
EXTT14=
EXTT15=
EXTT16=
EXTT17=
PLAYORDER=
